<svg width="106" height="40" viewBox="0 0 106 40" fill="none" xmlns="http://www.w3.org/2000/svg">
<path d="M103.367 1.12923H91.0766V9.99208L91.0408 10.0063C90.364 7.04724 89.6872 4.08823 89.0105 1.12923H76.7196V5.97973L64.4709 0L53.7999 5.20913C53.2737 3.84888 52.7475 2.48863 52.2214 1.12923H38.3208L28.6781 9.50169V5.70452C28.0014 4.17914 27.3246 2.6546 26.6479 1.12923H0V34.2955C0.676757 35.8209 1.35351 37.3454 2.03027 38.8708H27.6029H28.6772H39.8937V30.6668L39.9296 30.6801V34.2955C40.6063 35.8209 41.2831 37.3454 41.9598 38.8708H54.2507V34.0203L66.5003 40L77.6213 34.5707V35.7983C77.9969 36.8225 78.3734 37.8466 78.7489 38.8708H91.0398V27.1557L91.0757 27.1415V34.2955C91.7524 35.8209 92.4292 37.3454 93.1059 38.8708H105.397V5.70368C104.72 4.17914 104.043 2.65377 103.367 1.12923Z" fill="url(#paint0_linear_2639_914)"/>
<path d="M24.0926 15.3063L17.4077 17.7107L24.0926 20.1151V31.9728H2.55762V3.4494H24.0926V15.3063ZM16.9137 9.5609H9.73564V14.9393L16.9137 12.6575V9.5609ZM9.73564 20.4412V25.8605H16.9137V22.9265L9.73564 20.4412Z" fill="white"/>
<path d="M49.6654 3.4494V31.9728H42.4874V25.29L35.3094 22.6413V31.9728H28.1313V13.1879L39.3479 3.4494H49.6654ZM42.4874 18.8516V9.92786L35.3094 15.9176L42.4874 18.8516Z" fill="white"/>
<path d="M64.4701 9.31773L59.3104 11.8439L75.2376 19.5859V27.5321L64.4701 32.7888L53.7026 27.5321V20.8085L64.4701 26.106L69.6298 23.5799L53.7026 15.8379V7.8916L64.4701 2.63577L75.2376 7.8916V14.6153L64.4701 9.31773Z" fill="white"/>
<path d="M100.811 3.4494V31.9728H93.6334V18.2403L86.4554 21.0517V31.972H79.2773V3.4494H86.4554V14.3288L93.6334 11.5175V3.4494H100.811Z" fill="white"/>
<defs>
<linearGradient id="paint0_linear_2639_914" x1="-1.9213" y1="24.9964" x2="105.398" y2="26.0331" gradientUnits="userSpaceOnUse">
<stop stop-color="#FE8C00"/>
<stop offset="1" stop-color="#F83600"/>
</linearGradient>
</defs>
</svg>
