<svg width="188" height="74" viewBox="0 0 188 74" fill="none" xmlns="http://www.w3.org/2000/svg">
<path d="M184.38 2.08907H162.456V18.4853L162.393 18.5116C161.185 13.0374 159.978 7.56323 158.771 2.08907H136.847V11.0625L114.999 0L95.9647 9.63688C95.0262 7.12043 94.0876 4.60397 93.1491 2.08907H68.3541L51.1542 17.5781V10.5534C49.947 7.73142 48.7399 4.91101 47.5327 2.08907H0V63.4466C1.20715 66.2686 2.41431 69.089 3.62146 71.9109H49.2362H51.1526H71.1599V56.7335L71.2238 56.7582V63.4466C72.4309 66.2686 73.6381 69.089 74.8452 71.9109H96.7689V62.9375L118.619 74L138.456 63.9558V66.2269C139.126 68.1216 139.797 70.0163 140.467 71.9109H162.391V50.238L162.455 50.2117V63.4466C163.662 66.2686 164.869 69.089 166.076 71.9109H188V10.5518C186.793 7.73141 185.586 4.90947 184.38 2.08907Z" fill="black"/>
<path d="M42.9713 28.4177L31.0472 32.8658L42.9713 37.314V59.2507H4.55859V6.48242H42.9713V28.4177ZM30.166 17.7887H17.3623V27.7388L30.166 23.5174V17.7887ZM17.3623 37.9172V47.9429H30.166V42.515L17.3623 37.9172Z" fill="white"/>
<path d="M88.583 6.48242V59.2507H75.7793V46.8876L62.9756 41.9874V59.2507H50.1719V24.4987L70.1792 6.48242H88.583ZM75.7793 34.9765V18.4676L62.9756 29.5486L75.7793 34.9765Z" fill="white"/>
<path d="M114.995 17.303L105.792 21.9764L134.202 36.2991V50.9997L114.995 60.7245L95.7891 50.9997V38.561L114.995 48.3614L124.199 43.688L95.7891 29.3653V14.6647L114.995 4.94141L134.202 14.6647V27.1035L114.995 17.303Z" fill="white"/>
<path d="M179.817 6.48242V59.2507H167.014V33.8455L154.21 39.0466V59.2492H141.406V6.48242H154.21V26.6094L167.014 21.4083V6.48242H179.817Z" fill="white"/>
</svg>
