<svg width="17" height="16" viewBox="0 0 17 16" fill="none" xmlns="http://www.w3.org/2000/svg">
<path d="M7.49995 5.33337H9.49995M5.00662 14.6667H11.9933C13.8333 14.6667 14.5666 13.54 14.6533 12.1667L14.9999 6.66004C15.0216 6.3186 14.9729 5.97635 14.857 5.65445C14.7411 5.33255 14.5604 5.03784 14.3261 4.78854C14.0918 4.53924 13.8089 4.34064 13.4948 4.20502C13.1807 4.06939 12.8421 3.99963 12.4999 4.00004C12.0933 4.00004 11.7199 3.76671 11.5333 3.40671L11.0533 2.44004C10.7466 1.83337 9.94662 1.33337 9.26662 1.33337H7.73995C7.05328 1.33337 6.25328 1.83337 5.94662 2.44004L5.46662 3.40671C5.27995 3.76671 4.90662 4.00004 4.49995 4.00004C3.05328 4.00004 1.90662 5.22004 1.99995 6.66004L2.34662 12.1667C2.42662 13.54 3.16662 14.6667 5.00662 14.6667Z" stroke="white" stroke-width="1.5" stroke-linecap="round" stroke-linejoin="round"/>
<path d="M8.50004 12C9.69337 12 10.6667 11.0266 10.6667 9.83329C10.6667 8.63996 9.69337 7.66663 8.50004 7.66663C7.30671 7.66663 6.33337 8.63996 6.33337 9.83329C6.33337 11.0266 7.30671 12 8.50004 12Z" stroke="white" stroke-width="1.5" stroke-linecap="round" stroke-linejoin="round"/>
</svg>
