<svg width="16" height="16" viewBox="0 0 16 16" fill="none" xmlns="http://www.w3.org/2000/svg">
<g clip-path="url(#clip0_1134_7642)">
<path d="M5.99996 6.66667C6.35358 6.66667 6.69272 6.52619 6.94277 6.27614C7.19282 6.02609 7.33329 5.68696 7.33329 5.33333C7.33329 4.97971 7.19282 4.64057 6.94277 4.39052C6.69272 4.14048 6.35358 4 5.99996 4C5.64634 4 5.3072 4.14048 5.05715 4.39052C4.8071 4.64057 4.66663 4.97971 4.66663 5.33333C4.66663 5.68696 4.8071 6.02609 5.05715 6.27614C5.3072 6.52619 5.64634 6.66667 5.99996 6.66667Z" stroke="white" stroke-width="1.5" stroke-linecap="round" stroke-linejoin="round"/>
<path d="M8.66671 1.33337H6.00004C2.66671 1.33337 1.33337 2.66671 1.33337 6.00004V10C1.33337 13.3334 2.66671 14.6667 6.00004 14.6667H10C13.3334 14.6667 14.6667 13.3334 14.6667 10V6.66671" stroke="white" stroke-width="1.5" stroke-linecap="round" stroke-linejoin="round"/>
<path d="M10.5 3.33333H14.1667M12.3333 5.16667V1.5" stroke="white" stroke-width="1.5" stroke-linecap="round"/>
<path d="M1.78003 12.6333L5.0667 10.4266C5.59336 10.0733 6.35336 10.1133 6.8267 10.52L7.0467 10.7133C7.5667 11.16 8.4067 11.16 8.9267 10.7133L11.7 8.33329C12.22 7.88662 13.06 7.88662 13.58 8.33329L14.6667 9.26662" stroke="white" stroke-width="1.5" stroke-linecap="round" stroke-linejoin="round"/>
</g>
<defs>
<clipPath id="clip0_1134_7642">
<rect width="16" height="16" fill="white"/>
</clipPath>
</defs>
</svg>
