<svg width="20" height="20" viewBox="0 0 20 20" fill="none" xmlns="http://www.w3.org/2000/svg">
<g clip-path="url(#clip0_1504_6860)">
<path d="M18.3334 5.09996V3.31663C18.3334 2.14163 17.8001 1.66663 16.4751 1.66663H15.1084M18.3334 15.1083V16.475C18.3334 17.8 17.8001 18.3333 16.4751 18.3333H15.1084M4.89175 1.66663H3.52508C2.20008 1.66663 1.66675 2.14163 1.66675 3.31663V5.09163M1.66675 15.1083V16.475C1.66675 17.8 2.20008 18.3333 3.52508 18.3333H4.89175" stroke="white" stroke-width="1.5" stroke-linecap="round" stroke-linejoin="round"/>
<path d="M15.5 7.76V5.49C15.5 4.785 15.18 4.5 14.385 4.5H12.365C11.57 4.5 11.25 4.785 11.25 5.49V7.755C11.25 8.465 11.57 8.745 12.365 8.745H14.385C15.18 8.75 15.5 8.465 15.5 7.76ZM15.5 14.385V12.365C15.5 11.57 15.18 11.25 14.385 11.25H12.365C11.57 11.25 11.25 11.57 11.25 12.365V14.385C11.25 15.18 11.57 15.5 12.365 15.5H14.385C15.18 15.5 15.5 15.18 15.5 14.385ZM8.75 7.76V5.49C8.75 4.785 8.43 4.5 7.635 4.5H5.615C4.82 4.5 4.5 4.785 4.5 5.49V7.755C4.5 8.465 4.82 8.745 5.615 8.745H7.635C8.43 8.75 8.75 8.465 8.75 7.76ZM8.75 14.385V12.365C8.75 11.57 8.43 11.25 7.635 11.25H5.615C4.82 11.25 4.5 11.57 4.5 12.365V14.385C4.5 15.18 4.82 15.5 5.615 15.5H7.635C8.43 15.5 8.75 15.18 8.75 14.385Z" stroke="white" stroke-width="1.5" stroke-linecap="round" stroke-linejoin="round"/>
</g>
<defs>
<clipPath id="clip0_1504_6860">
<rect width="20" height="20" fill="white"/>
</clipPath>
</defs>
</svg>
