<svg width="33" height="33" viewBox="0 0 33 33" fill="none" xmlns="http://www.w3.org/2000/svg">
<path d="M15.4239 0.20886C14.7012 0.481639 14.37 0.754418 12.7288 2.39109C11.9158 3.20943 11.5846 3.2525 9.70257 2.79308C8.37763 2.46288 7.4291 2.54902 6.52573 3.06586C5.56214 3.64013 4.8244 5.19067 4.8244 6.69813C4.8244 7.01398 4.74912 7.53083 4.64372 7.84667C4.49316 8.36352 4.35766 8.46402 3.37901 8.90908C2.77677 9.18186 2.23475 9.39721 2.15947 9.39721C1.94868 9.39721 0.729141 10.3878 0.367795 10.8616C0.0666731 11.2349 0.00644873 11.4933 0.00644873 12.2973C0.00644873 13.4028 0.217234 13.9914 1.01521 15.1112C1.43678 15.6855 1.55723 16.0013 1.55723 16.4751C1.55723 17.0637 1.27116 17.7959 0.864646 18.1836C0.126897 18.9014 -0.264561 21.1267 0.202178 21.9881C0.458131 22.4475 1.7379 23.6104 2.00891 23.6104C2.38531 23.6104 4.38777 24.6585 4.53833 24.9456C4.64372 25.1179 4.77923 25.8357 4.83945 26.5536C4.94484 27.5442 5.08035 28.0467 5.42664 28.7071C5.96866 29.7264 6.31495 29.9992 7.51944 30.2863C8.33246 30.4873 8.49808 30.4873 9.37133 30.272C9.8983 30.1428 10.6963 30.0136 11.148 29.9705C12.0513 29.8987 12.0814 29.9274 13.6171 31.5928C14.2796 32.325 15.6798 33.0141 16.4929 32.9998C17.6672 32.9998 18.6158 32.3968 20.1967 30.674C20.8591 29.9561 20.9194 29.9274 21.642 29.9274C22.0636 29.9274 22.6659 30.0279 22.982 30.1571C24.1865 30.6309 26.4449 30.2863 27.0472 29.5254C27.5591 28.8937 27.8753 27.9749 28.0409 26.6254C28.1463 25.6491 28.2968 25.0748 28.4775 24.8595C28.7335 24.5436 29.3959 24.1991 30.7058 23.6679C31.4586 23.3664 32.6179 22.3614 32.8287 21.8158C33.2352 20.8109 32.904 19.3752 31.9856 18.04C31.2177 16.9632 31.2177 16.188 31.9555 15.0394C32.9642 13.4602 33.0094 13.331 32.9492 12.0819L32.904 10.9477L32.0609 10.2012C31.5791 9.77049 30.9618 9.38285 30.5552 9.25364C29.5013 8.92343 28.6281 8.39223 28.3872 7.94717C28.2667 7.73182 28.1613 7.22933 28.1613 6.85606C28.1463 5.23374 27.4386 3.64013 26.46 3.08022C25.7825 2.67823 24.7737 2.57773 23.7198 2.77873C23.2229 2.87922 22.3647 2.99408 21.8227 3.03715L20.829 3.10893L19.8353 1.96039C18.3146 0.20886 16.9144 -0.351055 15.4239 0.20886ZM17.9834 3.42478C19.6546 5.20502 21.1 5.69316 23.0272 5.16195C23.4488 5.03274 24.1865 4.9466 24.6683 4.97532L25.5265 5.01839L25.6921 6.39664C25.9481 8.5358 26.1589 9.067 27.0773 9.92841C27.5139 10.3448 27.9355 10.6893 27.9957 10.6893C28.071 10.6893 28.7184 10.9477 29.426 11.2636C30.6004 11.7804 30.7209 11.8809 30.7209 12.2399C30.7209 12.4696 30.5251 12.9433 30.2692 13.3166C28.6431 15.7716 28.5829 16.834 29.9831 19.1742C31.0521 20.9688 31.037 20.9831 29.1851 21.8589C26.5654 23.0649 26.0986 23.7109 25.7373 26.5249C25.5265 28.1615 25.4061 28.2908 24.2769 28.0754C23.8854 28.0036 23.1627 27.8744 22.6659 27.7739C20.6333 27.3863 19.6095 27.86 17.4263 30.1858C17.1102 30.5304 16.7338 30.7888 16.5531 30.7888C16.3423 30.7888 15.725 30.3007 14.8517 29.468C12.9697 27.6591 12.0513 27.3432 10.079 27.8313C8.67875 28.1903 7.77539 28.262 7.59472 28.0467C7.50438 27.9318 7.35382 27.1996 7.27854 26.41C7.08281 24.7159 6.61607 23.5817 5.86327 22.9787C5.5772 22.749 4.65878 22.2465 3.80058 21.8589C1.94868 21.0119 1.94868 20.9975 2.98755 19.2747C3.93609 17.7098 4.19204 16.6474 3.86081 15.585C3.7253 15.1543 3.45429 14.5513 3.25856 14.2211C1.8734 11.9527 1.85835 12.0676 3.87586 11.12C6.45045 9.8997 6.84191 9.35414 7.24843 6.45407C7.35382 5.73623 7.50438 5.07581 7.59472 4.96096C7.77539 4.74561 8.67875 4.81739 10.079 5.17631C11.163 5.43473 11.69 5.43473 12.6686 5.13324C13.3461 4.91789 13.7225 4.64511 14.9421 3.46785C16.1767 2.27624 16.4477 2.0896 16.6886 2.20445C16.8392 2.27624 17.4263 2.83615 17.9834 3.42478Z" fill="#76EE59"/>
<path d="M21.6121 11.8808C21.2659 12.0818 15.1681 17.9538 15.0929 18.1691C15.0627 18.2409 14.8971 18.2983 14.7165 18.2983C14.4906 18.2983 14.0389 17.9394 13.4066 17.279C12.8646 16.7191 12.2473 16.1735 12.0214 16.0587C11.4945 15.8002 10.9374 15.9295 10.5459 16.3889C9.97379 17.0924 10.1093 17.3508 12.0214 19.1884C13.8432 20.9687 14.4304 21.385 14.8971 21.2415C15.2585 21.141 23.0876 13.6324 23.2231 13.2591C23.4189 12.7853 23.193 12.2685 22.6811 11.967C22.1391 11.6511 22.0187 11.6368 21.6121 11.8808Z" fill="#76EE59"/>
</svg>
